<?xml version="1.0" encoding="UTF-8"?>
<svg id="HEXAGONO" xmlns="http://www.w3.org/2000/svg" viewBox="0 0 320 280">
  <defs>
    <style>
      .cls-1 {
        fill: #28df34;
      }

      .cls-1, .cls-2, .cls-3, .cls-4, .cls-5, .cls-6, .cls-7, .cls-8 {
        stroke-width: 0px;
      }

      .cls-2 {
        fill: #eceeed;
      }

      .cls-3 {
        fill: #65e86d;
      }

      .cls-9 {
        fill: none;
        stroke: #fff;
        stroke-miterlimit: 10;
        stroke-width: 5px;
      }

      .cls-4 {
        fill: #1bdd28;
      }

      .cls-5 {
        fill: #fff;
      }

      .cls-6 {
        fill: #90949d;
      }

      .cls-7 {
        fill: #08eb15;
      }

      .cls-8 {
        fill: #2450fe;
      }
    </style>
  </defs>
  <g id="LAPTOP">
    <g id="logo">
      <g id="laptop_com_codigo" data-name="laptop com codigo">
        <path class="cls-2" d="M112.49,156.22c-1-1.03-2.16-2.24-3.3-3.42v-3.23c2.89-3.32,6-6.88,9.12-10.47v-53.41c.29-.58.48-.97.72-1.42.46-.21,1-.59,1.58-.71.64-.13,1.33-.03,2-.03,26.36,0,52.73,0,79.1.02,1.17,0,2.33.24,3.36.36.36.68.6,1.14.93,1.77v53.45c3.07,3.51,6.13,7.02,9.14,10.46v3.11c-1.07,1.15-2.28,2.44-3.31,3.54h-99.34ZM126.06,135.53h72.22c.65-.65,1.31-1.32,2-2v-44.64c-.68-.68-1.35-1.34-2.02-2h-72.23c-.65.65-1.31,1.32-2,2v44.7c.67.64,1.34,1.3,2.02,1.95h0ZM148.88,146.76c-.36,1.55-2.39,2.38-1.8,4.33h30.15c.55-1.98-1.4-2.82-1.81-4.33h-26.55,0ZM169.74,152.4h-15.12c-1.2.97-.97,1.8.04,2.65h15.01c.67-.85.69-1.73.07-2.65Z"/>
        <path class="cls-8" d="M132.54,133.24h-1.53v-44.63h1.53v44.63Z"/>
        <path class="cls-6" d="M176.14,116.61v2.04h-27.97v-2.04s27.97,0,27.97,0Z"/>
        <path class="cls-4" d="M169.27,123.88v2.05h-27.36c-.03-.58-.07-1.27-.13-2.05h27.48Z"/>
        <path class="cls-4" d="M134.98,101.89v-2.06h23.35c.03.58.07,1.27.12,2.06h-23.47Z"/>
        <path class="cls-8" d="M167.55,119.96v2.06h-19.35c-.03-.59-.07-1.28-.11-2.06h19.46Z"/>
        <path class="cls-6" d="M164.21,108.6v-2.06h18.2c.03.58.07,1.27.11,2.06h-18.31Z"/>
        <path class="cls-6" d="M134.98,108.59v-2.04h18.23v2.04s-18.23,0-18.23,0Z"/>
        <path class="cls-8" d="M152.64,109.9v2.05h-17.61c-.04-.58-.08-1.26-.13-2.05h17.74Z"/>
        <path class="cls-8" d="M144.73,105.25v-2.06h17.62c.03.59.07,1.27.11,2.06,0,0-17.74,0-17.74,0Z"/>
        <path class="cls-4" d="M153.89,111.95v-2.06h16.47c.03.58.07,1.27.12,2.06h-16.59Z"/>
        <path class="cls-4" d="M171.56,95.91v2.06h-13.61c-.03-.59-.07-1.28-.11-2.06h13.72Z"/>
        <path class="cls-6" d="M148.06,95.92v2.06h-13.04c-.03-.59-.07-1.27-.11-2.06h13.15Z"/>
        <path class="cls-6" d="M147.48,119.96v2.06h-12.47c-.03-.59-.07-1.28-.11-2.06h12.58,0Z"/>
        <path class="cls-6" d="M177.4,118.66v-2.06h12.47c.03.59.07,1.27.11,2.06,0,0-12.58,0-12.58,0Z"/>
        <path class="cls-4" d="M134.98,118.66v-2.05h12.45c.03.58.08,1.26.13,2.05h-12.58Z"/>
        <path class="cls-4" d="M167.13,99.78h10.12v2.02s-.03.08-.1.08c-3.3.01-6.61,0-10.02,0v-2.11h0Z"/>
        <path class="cls-4" d="M153.94,106.49h8.97v2.05h-8.97v-2.05Z"/>
        <path class="cls-4" d="M133.26,115.31v-2.06h9.03c.03.59.06,1.28.11,2.06h-9.14Z"/>
        <path class="cls-6" d="M134.98,105.25v-2.06h9.03c.03.59.06,1.28.1,2.06h-9.13Z"/>
        <path class="cls-4" d="M133.26,94.62v-2.06h8.46c.03.59.07,1.28.11,2.06,0,0-8.56,0-8.56,0Z"/>
        <path class="cls-8" d="M149.31,97.97v-2.05h7.29c.03.57.08,1.25.13,2.05,0,0-7.42,0-7.42,0Z"/>
        <path class="cls-6" d="M159.06,101.89v-2.06h6.73c.03.58.07,1.27.11,2.06,0,0-6.85,0-6.85,0Z"/>
        <path class="cls-4" d="M140.03,127.23v2.06h-6.74c-.03-.59-.07-1.28-.11-2.06h6.85Z"/>
        <path class="cls-8" d="M134.98,125.94v-2.06h6.16c.03.59.07,1.28.11,2.06h-6.27Z"/>
        <path class="cls-6" d="M142.43,94.62v-2.06h4.45c.03.59.06,1.28.1,2.06h-4.55Z"/>
        <path class="cls-4" d="M172.66,122.07h-4.39v-2.14c1.35-.14,2.83-.02,4.39-.07v2.2Z"/>
        <path class="cls-3" d="M141.54,92.03c.69-.77,1.07-1.2,1.57-1.76-.43-.51-.85-1.02-1.27-1.51.08-.08.16-.18.24-.26.42.23.83.47,1.25.7.45.25.9.51,1.6.91-1.07.58-1.68,1.62-3.37,1.93h0Z"/>
        <path class="cls-3" d="M134.71,90.15c1.08-.65,1.94-1.17,2.8-1.69.09.1.18.2.26.29-.37.42-.74.85-1.23,1.4.38.5.78,1.02,1.26,1.64-.34.05-.69.2-.84.1-.71-.49-1.36-1.05-2.25-1.75Z"/>
        <path class="cls-3" d="M134.72,131.63c.31-.27.48-.44.67-.56.29-.19.63-.32.9-.51.23-.16.37-.45.61-.55.21-.09.51,0,.98.03-.51.57-.9,1-1.4,1.55.44.51.86,1.01,1.29,1.51-.2.11-.28.18-.36.19-.09.02-.21.04-.28,0-.77-.52-1.54-1.06-2.41-1.66h0Z"/>
        <path class="cls-3" d="M142.11,129.85c.85.51,1.69,1.03,2.8,1.69-.96.68-1.83,1.29-2.7,1.91-.11-.1-.23-.2-.34-.31.38-.48.74-.96,1.25-1.6-.44-.45-.87-.89-1.3-1.33.1-.12.19-.25.29-.37h0Z"/>
        <path class="cls-8" d="M126.95,97.97v-1.5h1.58c.03.39.07.89.12,1.5h-1.69Z"/>
        <path class="cls-8" d="M128.47,118.2h-1.45c-.05-.48-.09-.98-.15-1.58h1.6v1.58Z"/>
        <path class="cls-8" d="M128.58,93.13v1.49h-1.58c-.03-.39-.08-.89-.13-1.49h1.71Z"/>
        <path class="cls-8" d="M128.62,120.02v1.42c-.49.05-1,.09-1.62.14v-1.56h1.62Z"/>
        <path class="cls-8" d="M127,106.5h1.52v1.53c-.4.03-.91.07-1.52.12v-1.66h0Z"/>
        <path class="cls-8" d="M128.62,89.83v1.42c-.49.05-1,.09-1.62.14v-1.56h1.62Z"/>
        <path class="cls-8" d="M127,109.85h1.52v1.53c-.4.03-.9.07-1.52.12v-1.66h0Z"/>
        <path class="cls-8" d="M128.53,128.21h-1.54v-1.54c.4-.03.91-.07,1.54-.12v1.66Z"/>
        <path class="cls-8" d="M126.95,104.68v-1.5h1.58c.03.39.07.89.12,1.5h-1.69Z"/>
        <path class="cls-8" d="M128.58,99.84v1.49h-1.58c-.03-.39-.08-.89-.13-1.49h1.71Z"/>
        <path class="cls-8" d="M127,113.21h1.52v1.53c-.4.03-.9.07-1.52.12v-1.66h0Z"/>
        <path class="cls-8" d="M128.62,123.38v1.42c-.49.05-1,.09-1.62.14v-1.56h1.62Z"/>
        <path class="cls-1" d="M139.57,90.84c-.13.15-.27.31-.4.46l-.18-.18c.15-.13.31-.26.47-.39l.11.11Z"/>
        <path class="cls-1" d="M140.09,90.23c-.19.19-.38.37-.57.56.19-.19.38-.37.57-.56Z"/>
        <path class="cls-1" d="M140.03,90.18c.13-.15.27-.31.4-.46l.18.18c-.15.13-.31.26-.47.39l-.11-.11Z"/>
        <path class="cls-1" d="M140.03,131.56l.4-.46.18.18c-.15.13-.31.26-.47.39-.04-.03-.07-.07-.11-.11Z"/>
        <path class="cls-1" d="M139.51,132.17c.19-.19.38-.37.57-.56-.19.19-.38.37-.57.56Z"/>
        <path class="cls-1" d="M139.57,132.22c-.13.15-.27.31-.4.46l-.18-.18c.15-.13.31-.26.47-.39.04.03.07.07.11.11Z"/>
      </g>
    </g>
  </g>
  <g id="LETTERING">
    <g id="TECHNOLOGY">
      <path class="cls-5" d="M77.81,162.24c1.56.78,2.75,1.86,3.58,3.23.83,1.37,1.24,2.94,1.24,4.69s-.41,3.25-1.24,4.55c-.83,1.31-2.02,2.31-3.56,3.02-1.55.71-3.38,1.07-5.49,1.07h-4.64v9.28h-6.03v-27.02h10.67c2.09,0,3.92.39,5.47,1.17ZM75.51,172.94c.69-.67,1.04-1.59,1.04-2.74,0-.78-.15-1.49-.45-2.13s-.76-1.16-1.39-1.55-1.42-.58-2.38-.58h-4.64v8.02h4.64c1.42,0,2.48-.34,3.17-1.01Z"/>
      <path class="cls-5" d="M109.32,187.81v.28h-6.46l-4.88-9.65h-4.03v9.65h-6.03v-27.02h10.33c2.08,0,3.87.31,5.39.94,1.52.62,2.68,1.55,3.49,2.76.81,1.22,1.22,2.71,1.22,4.46,0,1.95-.41,3.54-1.22,4.75s-2,2.17-3.54,2.88l5.73,10.95ZM93.96,173.58h4.3c1.32,0,2.33-.34,3.02-1.01.69-.67,1.04-1.6,1.04-2.79s-.34-2.16-1.03-2.83c-.69-.67-1.7-1.01-3.03-1.01h-4.3v7.64Z"/>
      <path class="cls-5" d="M114.46,188.09v-27.02h6.01v27.02h-6.01Z"/>
      <path class="cls-5" d="M155.77,188.09h-6.03v-6.64l.59-13.08-6.94,19.72h-4.04l-6.94-19.72.59,13.08v6.64h-6.01v-27.02h7.89l6.49,19.04,6.49-19.04h7.9v27.02Z"/>
      <path class="cls-5" d="M167.96,165.93v5.94h10.46v4.69h-10.46v6.68h12.32v4.84h-18.35v-27.02h18.35v4.86h-12.32Z"/>
      <path class="cls-7" d="M199.82,162.71c1.88,1.09,3.35,2.61,4.41,4.57,1.06,1.96,1.59,4.2,1.59,6.73v1.17c0,2.52-.53,4.76-1.58,6.72-1.05,1.95-2.52,3.48-4.41,4.56-1.89,1.09-4.04,1.63-6.45,1.63h-8.5v-27.02h8.5c2.41,0,4.56.54,6.44,1.63ZM199.69,173.97c0-2.62-.54-4.62-1.61-5.98-1.08-1.37-2.64-2.05-4.69-2.05h-2.47v17.31h2.47c2.04,0,3.6-.69,4.68-2.06,1.08-1.37,1.62-3.38,1.62-6.01v-1.21Z"/>
      <path class="cls-7" d="M232.55,187.81v.28h-6.46l-4.88-9.65h-4.03v9.65h-6.03v-27.02h10.33c2.08,0,3.88.31,5.39.94,1.51.62,2.68,1.55,3.49,2.76.81,1.22,1.21,2.71,1.21,4.46,0,1.95-.41,3.54-1.22,4.75s-2,2.17-3.54,2.88l5.73,10.95ZM217.18,173.58h4.3c1.32,0,2.33-.34,3.02-1.01.69-.67,1.04-1.6,1.04-2.79s-.34-2.16-1.03-2.83c-.69-.67-1.7-1.01-3.03-1.01h-4.3v7.64Z"/>
      <path class="cls-7" d="M250.62,161.07h6.53l-8.79,17.27v9.74h-6.1v-9.74l-8.79-17.27h6.55l5.31,11.86,5.31-11.86Z"/>
    </g>
    <g id="PRIMEDRY">
      <path class="cls-7" d="M115,202.67h-3.23v8.75h-2.38v-8.75h-3.18v-1.92h8.79v1.92Z"/>
      <path class="cls-7" d="M119.65,202.67v2.34h4.13v1.85h-4.13v2.64h4.86v1.91h-7.24v-10.66h7.24v1.92h-4.86Z"/>
      <path class="cls-7" d="M134.68,209.78c-.36.56-.86,1-1.5,1.31-.64.31-1.39.47-2.25.47-.92,0-1.71-.21-2.38-.63-.67-.42-1.18-1.01-1.54-1.79s-.53-1.69-.53-2.75v-.62c0-1.05.18-1.96.55-2.75.37-.78.88-1.38,1.56-1.8.67-.42,1.45-.63,2.35-.63s1.64.16,2.27.49c.63.33,1.12.77,1.47,1.35.35.57.56,1.23.63,1.98h-2.37c-.04-.63-.21-1.1-.51-1.41-.3-.3-.8-.46-1.48-.46s-1.21.26-1.55.77-.5,1.33-.5,2.45v.63c0,.76.07,1.38.2,1.85s.35.82.65,1.04.7.34,1.19.34c.64,0,1.12-.15,1.44-.44s.5-.74.54-1.35h2.37c-.04.74-.24,1.39-.6,1.96Z"/>
      <path class="cls-7" d="M146.51,200.75v10.66h-2.37v-4.49h-4.04v4.49h-2.38v-10.66h2.38v4.26h4.04v-4.26h2.37Z"/>
      <path class="cls-7" d="M155.8,211.42l-4.04-6.75v6.75h-2.38v-10.66h2.38l4.04,6.76v-6.76h2.37v10.66h-2.37Z"/>
      <path class="cls-7" d="M169.35,209.1c-.39.79-.93,1.4-1.62,1.82-.69.42-1.49.64-2.39.64s-1.7-.21-2.4-.64c-.7-.43-1.24-1.03-1.63-1.82-.39-.79-.58-1.72-.58-2.79v-.45c0-1.07.19-2,.58-2.79.39-.79.92-1.4,1.62-1.83.69-.42,1.49-.64,2.4-.64s1.7.21,2.39.64c.7.43,1.24,1.03,1.63,1.83.39.79.58,1.72.58,2.79v.45c0,1.07-.19,2-.58,2.79ZM166.96,203.41c-.38-.56-.92-.85-1.63-.85s-1.26.28-1.63.84c-.37.56-.56,1.38-.56,2.45v.46c0,1.07.19,1.88.57,2.45.38.57.93.85,1.63.85s1.24-.29,1.62-.86c.38-.57.57-1.39.57-2.45v-.46c0-1.06-.19-1.88-.57-2.44Z"/>
      <path class="cls-7" d="M179.45,209.5v1.91h-6.95v-10.66h2.38v8.75h4.57Z"/>
      <path class="cls-7" d="M189.52,209.1c-.39.79-.93,1.4-1.62,1.82-.69.42-1.49.64-2.39.64s-1.7-.21-2.4-.64c-.7-.43-1.24-1.03-1.63-1.82-.39-.79-.58-1.72-.58-2.79v-.45c0-1.07.19-2,.58-2.79.39-.79.92-1.4,1.62-1.83.69-.42,1.49-.64,2.4-.64s1.7.21,2.4.64c.7.43,1.24,1.03,1.63,1.83.39.79.58,1.72.58,2.79v.45c0,1.07-.19,2-.58,2.79ZM187.12,203.41c-.38-.56-.92-.85-1.63-.85s-1.26.28-1.63.84c-.37.56-.56,1.38-.56,2.45v.46c0,1.07.19,1.88.57,2.45.38.57.92.85,1.63.85s1.24-.29,1.62-.86c.38-.57.57-1.39.57-2.45v-.46c0-1.06-.19-1.88-.57-2.44Z"/>
      <path class="cls-7" d="M200.38,210.78c-.36.22-.83.41-1.38.56-.56.15-1.2.23-1.92.23-.94,0-1.76-.2-2.46-.61-.7-.41-1.24-1-1.63-1.77-.38-.78-.57-1.71-.57-2.79v-.61c0-1.08.19-2.01.56-2.79.38-.78.9-1.37,1.58-1.78.68-.41,1.46-.61,2.36-.61,1.36,0,2.38.32,3.08.96s1.1,1.52,1.22,2.64h-2.29c-.08-.56-.27-.98-.58-1.26-.3-.29-.75-.43-1.36-.43-.69,0-1.23.28-1.6.83s-.56,1.36-.56,2.43v.62c0,2.17.8,3.26,2.4,3.26.74,0,1.28-.16,1.63-.48v-1.71h-1.9v-1.72h4.27v4.34c-.21.23-.49.46-.85.69Z"/>
      <path class="cls-7" d="M209.86,200.75h2.58l-3.47,6.82v3.85h-2.41v-3.85l-3.47-6.82h2.59l2.09,4.68,2.09-4.68Z"/>
    </g>
  </g>
  <g id="HEXAGONO-2" data-name="HEXAGONO">
    <polyline id="CIMA" class="cls-9" points="251.17 145.12 250.72 94.16 160 43.35 70.99 94.16 70.99 145.12"/>
    <polyline id="BAIXO" class="cls-9" points="249 200.6 160 252.14 70.99 200.6"/>
  </g>
</svg>