<?xml version="1.0" encoding="UTF-8"?>
<svg id="logo" xmlns="http://www.w3.org/2000/svg" viewBox="0 0 750 950">
  <defs>
    <style>
      .cls-1 {
        fill: #edefee;
      }

      .cls-1, .cls-2, .cls-3, .cls-4, .cls-5, .cls-6, .cls-7, .cls-8 {
        stroke-width: 0px;
      }

      .cls-2 {
        fill: #28df34;
      }

      .cls-3 {
        fill: #eceeed;
      }

      .cls-4 {
        fill: #65e86d;
      }

      .cls-5 {
        fill: #1bdd28;
      }

      .cls-6 {
        fill: #90949d;
      }

      .cls-7 {
        fill: #08eb15;
      }

      .cls-8 {
        fill: #2450fe;
      }
    </style>
  </defs>
  <g id="logo-2" data-name="logo">
    <g>
      <path class="cls-3" d="M89.06,518.9c-1.75-1.82-3.8-3.96-5.81-6.05v-5.72c5.08-5.87,10.55-12.18,16.04-18.53v-94.54c.51-1.02.85-1.71,1.26-2.52.81-.38,1.75-1.04,2.78-1.25,1.13-.23,2.34-.05,3.52-.05,46.36,0,92.72,0,139.09.03,2.05,0,4.09.43,5.91.64.63,1.2,1.06,2.02,1.64,3.13v94.6c5.4,6.22,10.78,12.42,16.08,18.51v5.5c-1.89,2.04-4.01,4.31-5.82,6.26H89.06ZM112.91,482.28h127c1.14-1.15,2.31-2.33,3.52-3.54v-79.02c-1.2-1.2-2.37-2.37-3.55-3.54h-127.01c-1.14,1.15-2.31,2.33-3.52,3.54v79.11c1.17,1.14,2.36,2.3,3.55,3.46ZM153.05,502.17c-.64,2.74-4.2,4.21-3.16,7.66h53.02c.96-3.5-2.46-5-3.18-7.66h-46.69ZM189.74,512.15h-26.59c-2.11,1.72-1.7,3.19.07,4.69h26.39q1.76-2.26.13-4.69Z"/>
      <path class="cls-3" d="M296.99,530.97h5.78c.06.5.1.82.14,1.13-5.77,3.69-11.86,6.84-17.73,10.37-5.17,3.11-10.63,5.83-15.86,8.91-4.98,2.93-9.93,5.89-14.96,8.73-5.01,2.83-10.14,5.46-15.14,8.29-5.3,3-10.51,6.15-15.77,9.21-2.15,1.25-4.38,2.37-6.52,3.65-6.04,3.6-12.07,7.24-18.25,10.55-5.36,2.87-10.43,6.21-15.86,8.94-3.07,1.54-5.96,3.43-8.97,5.19-3.27-1.92-6.64-3.89-10-5.88-5.51-3.27-11.06-6.5-16.65-9.57-5.17-2.84-10.14-6.04-15.45-8.68-5.31-2.64-10.1-6.27-15.4-8.93-5.17-2.59-9.97-5.77-15.05-8.49-5.36-2.87-10.54-6.07-15.83-9.07-2.97-1.69-6.18-3.04-8.98-4.96-5.04-3.47-10.62-6.01-15.76-9.31-4.95-3.18-10.33-5.72-15.71-8.64v-148.86c2.42-2.18,5.8-3.32,8.75-5.06,7.93-4.67,15.93-9.23,23.92-13.78,5.26-2.99,10.51-6.06,15.84-8.97,6.71-3.66,13.21-7.71,19.86-11.48,5.14-2.91,10.4-5.61,15.57-8.48,4.91-2.73,9.82-5.45,14.61-8.36,5.6-3.39,11.29-6.64,17.04-9.79,4.38-2.4,8.65-5,13.18-7.64,5,2.8,10.18,5.66,15.31,8.58,3.39,1.93,6.7,4.01,10.1,5.93,7.47,4.23,15,8.36,22.29,12.9,4.87,3.03,10.12,5.48,15.12,8.31,5.3,3,10.5,6.17,15.77,9.23,2.15,1.25,4.32,2.47,6.54,3.61,7.9,4.06,15.39,8.81,23.2,13.04,5.74,3.11,11.32,6.59,17.07,9.75,1.22.67,2.28,1.62,3.65,2.62v3.14h-3.63c-.1-.28-.24-.72-.43-1.27-6.44-3.47-12.87-7.26-19.27-11.1-5.05-3.04-10.43-5.56-15.56-8.47-5.17-2.92-10.21-6.06-15.33-9.06-2.69-1.57-5.46-3-8.14-4.6-5.5-3.27-11-6.62-16.64-9.58-5.24-2.75-10.16-6.02-15.47-8.66-5.31-2.64-10.09-6.31-15.4-8.93-6.7-3.3-12.65-7.94-19.57-10.54-6.04,3.41-11.99,6.53-17.68,10.04-8.78,5.42-18.07,9.97-26.68,15.67-3.85,2.55-8.5,3.92-12.35,6.46-4.97,3.29-10.36,5.83-15.37,9.01-5.02,3.17-10.38,5.75-15.37,9.01-4.93,3.21-10.39,5.6-15.53,8.51-5.17,2.92-10.2,6.07-15.34,9.05-1.87,1.09-3.86,1.97-6.02,3.06v143.89c3.91,2.38,7.96,5,12.34,7.17,5.02,2.49,9.82,5.43,14.64,8.3,5.49,3.26,11.02,6.45,16.64,9.51,7,3.81,13.71,8.12,20.59,12.14,2.81,1.64,5.88,2.89,8.6,4.66,7.47,4.86,15.62,8.55,23.07,13.47,4.9,3.23,10.39,5.6,15.54,8.5,4.48,2.53,8.85,5.25,13.35,7.94,5.5-3.29,10.8-6.59,16.24-9.65,3.12-1.75,6.26-3.47,9.38-5.22,7.35-4.12,14.54-8.52,21.95-12.51,5.2-2.8,10.15-6.03,15.47-8.64,5.46-2.68,10.48-6.22,15.73-9.33,2.41-1.43,5-2.49,7.37-4.1,4.09-2.77,8.82-4.62,13.01-7.27,5.29-3.35,11.07-5.86,16.16-9.57,2.23-1.63,4.96-2.58,7.86-4.04Z"/>
      <path class="cls-8" d="M124.32,478.24h-2.69v-79h2.69v79Z"/>
      <path class="cls-6" d="M200.99,448.81v3.61h-49.19v-3.61h49.19Z"/>
      <path class="cls-5" d="M188.91,461.66v3.63h-48.11c-.06-1.03-.13-2.24-.22-3.63h48.33Z"/>
      <path class="cls-5" d="M128.6,422.74v-3.64h41.07c.06,1.03.13,2.25.21,3.64h-41.28Z"/>
      <path class="cls-8" d="M185.88,454.73v3.65h-34.02c-.06-1.04-.12-2.26-.2-3.65h34.21Z"/>
      <path class="cls-6" d="M180.01,434.62v-3.64h32c.06,1.03.13,2.25.2,3.64h-32.2Z"/>
      <path class="cls-6" d="M128.61,434.6v-3.61h32.06v3.61h-32.06Z"/>
      <path class="cls-8" d="M159.67,436.93v3.62h-30.96c-.07-1.02-.14-2.23-.23-3.62h31.19Z"/>
      <path class="cls-8" d="M145.74,428.68v-3.64h30.99c.06,1.04.12,2.25.2,3.64h-31.19Z"/>
      <path class="cls-5" d="M161.87,440.55v-3.64h28.97c.06,1.03.13,2.25.21,3.64h-29.18Z"/>
      <path class="cls-5" d="M192.93,412.17v3.65h-23.94c-.05-1.05-.12-2.27-.19-3.65h24.13Z"/>
      <path class="cls-6" d="M151.61,412.17v3.64h-22.93c-.06-1.04-.12-2.25-.2-3.64h23.13Z"/>
      <path class="cls-6" d="M150.6,454.73v3.65h-21.92c-.05-1.04-.12-2.26-.19-3.65h22.12Z"/>
      <path class="cls-6" d="M203.2,452.43v-3.64h21.92c.06,1.04.12,2.25.2,3.64h-22.12Z"/>
      <path class="cls-5" d="M128.6,452.43v-3.63h21.9c.06,1.02.14,2.23.22,3.63h-22.12Z"/>
      <path class="cls-5" d="M185.14,419.02h17.79v3.57c.07-.06-.05.14-.17.14-5.81.02-11.63.01-17.62.01v-3.73Z"/>
      <path class="cls-5" d="M161.95,430.9h15.78v3.63h-15.78v-3.63Z"/>
      <path class="cls-5" d="M125.58,446.5v-3.65h15.88c.05,1.05.11,2.26.19,3.65h-16.06Z"/>
      <path class="cls-6" d="M128.61,428.69v-3.65h15.88c.05,1.05.11,2.27.18,3.65h-16.06Z"/>
      <path class="cls-5" d="M125.58,409.88v-3.64h14.87c.06,1.04.12,2.26.19,3.64h-15.06Z"/>
      <path class="cls-8" d="M153.81,415.8v-3.62h12.82c.06,1.01.14,2.22.23,3.62h-13.05Z"/>
      <path class="cls-6" d="M170.94,422.74v-3.64h11.84c.06,1.03.12,2.24.2,3.64h-12.04Z"/>
      <path class="cls-5" d="M137.49,467.59v3.65h-11.85c-.05-1.04-.12-2.26-.19-3.65h12.03Z"/>
      <path class="cls-8" d="M128.6,465.3v-3.64h10.84c.05,1.04.12,2.26.19,3.64h-11.03Z"/>
      <path class="cls-6" d="M141.71,409.88v-3.64h7.82c.05,1.04.11,2.26.18,3.64h-8Z"/>
      <path class="cls-5" d="M194.87,458.45h-7.72v-3.78c2.38-.25,4.97-.03,7.72-.12v3.9Z"/>
      <path class="cls-4" d="M140.14,405.29c1.21-1.37,1.88-2.12,2.76-3.12-.76-.91-1.5-1.8-2.24-2.68.14-.15.28-.31.42-.46.73.41,1.46.83,2.19,1.24.8.45,1.59.91,2.81,1.61-1.88,1.03-2.95,2.87-5.93,3.41Z"/>
      <path class="cls-4" d="M128.12,401.96c1.9-1.15,3.41-2.07,4.92-2.99.15.17.31.35.46.52-.65.75-1.31,1.5-2.16,2.48.67.88,1.38,1.81,2.21,2.91-.6.08-1.21.36-1.48.17-1.24-.86-2.39-1.85-3.95-3.09Z"/>
      <path class="cls-4" d="M128.15,475.38c.55-.47.84-.78,1.18-1,.51-.33,1.1-.56,1.59-.91.4-.28.65-.8,1.08-.98.37-.16.89.01,1.72.06-.9,1.01-1.58,1.77-2.47,2.75.77.91,1.51,1.78,2.26,2.67-.36.2-.49.31-.63.34-.16.04-.37.07-.49,0-1.36-.92-2.71-1.87-4.24-2.94Z"/>
      <path class="cls-4" d="M141.15,472.22c1.49.91,2.98,1.82,4.93,3-1.69,1.2-3.22,2.29-4.75,3.38-.2-.18-.4-.36-.6-.54.66-.85,1.31-1.7,2.19-2.84-.77-.79-1.53-1.57-2.28-2.35.17-.22.34-.44.51-.66Z"/>
      <path class="cls-8" d="M114.49,415.81v-2.65h2.77c.06.69.13,1.57.21,2.65h-2.98Z"/>
      <path class="cls-8" d="M117.16,451.6h-2.55c-.08-.85-.16-1.73-.26-2.8h2.81v2.8Z"/>
      <path class="cls-8" d="M117.34,407.23v2.64h-2.77c-.06-.69-.14-1.57-.23-2.64h2.99Z"/>
      <path class="cls-8" d="M117.42,454.83v2.51c-.86.08-1.75.16-2.85.25v-2.76h2.85Z"/>
      <path class="cls-8" d="M114.57,430.9h2.68v2.71c-.7.06-1.6.13-2.68.22v-2.94Z"/>
      <path class="cls-8" d="M117.42,401.39v2.51c-.87.08-1.76.16-2.85.25v-2.76h2.85Z"/>
      <path class="cls-8" d="M114.57,436.84h2.68v2.71c-.7.06-1.59.13-2.68.22v-2.94Z"/>
      <path class="cls-8" d="M117.26,469.33h-2.7v-2.72c.71-.05,1.6-.12,2.7-.21v2.93Z"/>
      <path class="cls-8" d="M114.49,427.69v-2.65h2.77c.06.69.13,1.57.21,2.65h-2.98Z"/>
      <path class="cls-8" d="M117.34,419.11v2.64h-2.77c-.06-.69-.14-1.57-.23-2.64h2.99Z"/>
      <path class="cls-8" d="M114.57,442.78h2.68v2.71c-.7.06-1.59.13-2.68.22v-2.94Z"/>
      <path class="cls-8" d="M117.42,460.77v2.51c-.86.08-1.75.16-2.85.25v-2.76h2.85Z"/>
      <path class="cls-2" d="M136.68,403.2c-.23.27-.47.54-.7.81l-.32-.31c.27-.23.55-.46.82-.69l.2.19Z"/>
      <path class="cls-2" d="M137.59,402.12c-.34.33-.67.66-1.01.99.34-.33.67-.66,1.01-.99Z"/>
      <path class="cls-2" d="M137.48,402.03c.23-.27.47-.54.7-.81l.32.31c-.27.23-.55.46-.82.69l-.2-.19Z"/>
      <path class="cls-2" d="M137.48,475.27l.7-.81.32.31c-.27.23-.55.46-.82.69-.07-.06-.13-.13-.2-.19Z"/>
      <path class="cls-2" d="M136.58,476.35c.34-.33.67-.66,1.01-.99-.34.33-.67.66-1.01.99Z"/>
      <path class="cls-2" d="M136.68,476.44c-.23.27-.47.54-.7.81l-.32-.31c.27-.23.55-.46.82-.69.07.06.13.13.2.19Z"/>
    </g>
    <g>
      <path class="cls-1" d="M316.56,401.31c2.27,1.12,4.02,2.66,5.22,4.62,1.21,1.97,1.81,4.21,1.81,6.72s-.6,4.66-1.81,6.53c-1.21,1.87-2.94,3.31-5.2,4.33-2.26,1.02-4.93,1.53-8.01,1.53h-6.77v13.29h-8.8v-38.7h15.57c3.05,0,5.71.56,7.99,1.67ZM313.2,416.64c1.01-.97,1.52-2.27,1.52-3.92,0-1.12-.22-2.14-.65-3.06-.43-.92-1.11-1.66-2.03-2.22-.92-.56-2.08-.84-3.47-.84h-6.77v11.48h6.77c2.08,0,3.62-.48,4.63-1.45Z"/>
      <path class="cls-1" d="M360.15,437.94v.4h-9.42l-7.12-13.82h-5.87v13.82h-8.8v-38.7h15.08c3.03,0,5.65.45,7.86,1.34,2.21.89,3.91,2.21,5.09,3.96,1.18,1.75,1.77,3.88,1.77,6.39,0,2.8-.6,5.07-1.79,6.8-1.19,1.74-2.91,3.11-5.17,4.12l8.37,15.68ZM337.73,417.55h6.28c1.93,0,3.4-.48,4.41-1.45,1.01-.97,1.52-2.3,1.52-4s-.5-3.09-1.5-4.05c-1-.97-2.48-1.45-4.43-1.45h-6.28v10.95Z"/>
      <path class="cls-1" d="M365.26,438.34v-38.7h8.77v38.7h-8.77Z"/>
      <path class="cls-1" d="M423.14,438.34h-8.8v-9.52l.87-18.74-10.12,28.25h-5.9l-10.12-28.25.87,18.74v9.52h-8.77v-38.7h11.51l9.48,27.27,9.48-27.27h11.53v38.7Z"/>
      <path class="cls-1" d="M438.55,406.6v8.51h15.27v6.72h-15.27v9.57h17.98v6.94h-26.77v-38.7h26.77v6.96h-17.98Z"/>
      <path class="cls-7" d="M496.45,401.98c2.74,1.56,4.89,3.74,6.43,6.55,1.54,2.81,2.32,6.02,2.32,9.63v1.67c0,3.61-.77,6.82-2.3,9.62-1.53,2.8-3.68,4.98-6.43,6.54-2.75,1.56-5.89,2.34-9.41,2.34h-12.4v-38.7h12.4c3.52,0,6.65.78,9.39,2.34ZM496.26,418.11c0-3.76-.78-6.61-2.35-8.57-1.57-1.96-3.85-2.94-6.85-2.94h-3.6v24.8h3.6c2.98,0,5.26-.98,6.84-2.95s2.37-4.84,2.37-8.61v-1.73Z"/>
      <path class="cls-7" d="M541.83,437.94v.4h-9.42l-7.12-13.82h-5.87v13.82h-8.8v-38.7h15.08c3.03,0,5.65.45,7.86,1.34,2.21.89,3.91,2.21,5.09,3.96,1.18,1.75,1.77,3.88,1.77,6.39,0,2.8-.6,5.07-1.79,6.8-1.19,1.74-2.91,3.11-5.17,4.12l8.36,15.68ZM519.41,417.55h6.28c1.93,0,3.4-.48,4.41-1.45,1.01-.97,1.52-2.3,1.52-4s-.5-3.09-1.5-4.05c-1-.97-2.48-1.45-4.43-1.45h-6.28v10.95Z"/>
      <path class="cls-7" d="M565.81,399.64h9.53l-12.83,24.75v13.95h-8.91v-13.95l-12.83-24.75h9.56l7.74,16.98,7.74-16.98Z"/>
    </g>
    <g>
      <path class="cls-7" d="M321,470.73h-11.94v31.74h-8.8v-31.74h-11.75v-6.96h32.49v6.96Z"/>
      <path class="cls-7" d="M339.09,470.73v8.51h15.27v6.72h-15.27v9.57h17.98v6.94h-26.77v-38.7h26.77v6.96h-17.98Z"/>
      <path class="cls-7" d="M395.52,496.53c-1.32,2.05-3.16,3.64-5.54,4.77-2.37,1.13-5.15,1.7-8.33,1.7-3.39,0-6.33-.76-8.8-2.27-2.47-1.52-4.37-3.68-5.69-6.5s-1.98-6.15-1.98-9.99v-2.23c0-3.81.68-7.13,2.03-9.97,1.35-2.83,3.27-5.01,5.75-6.54,2.48-1.52,5.37-2.29,8.68-2.29s6.06.59,8.39,1.77c2.33,1.18,4.14,2.81,5.43,4.89,1.29,2.08,2.06,4.48,2.31,7.19h-8.77c-.14-2.3-.78-4.01-1.89-5.12-1.12-1.11-2.94-1.66-5.47-1.66s-4.48.93-5.71,2.79-1.84,4.82-1.84,8.88v2.29c0,2.76.25,5,.74,6.7s1.3,2.96,2.4,3.77,2.57,1.22,4.41,1.22c2.36,0,4.14-.53,5.32-1.59s1.85-2.7,1.99-4.92h8.77c-.16,2.69-.9,5.06-2.22,7.11Z"/>
      <path class="cls-7" d="M440.11,463.77v38.7h-8.77v-16.29h-14.94v16.29h-8.8v-38.7h8.8v15.47h14.94v-15.47h8.77Z"/>
      <path class="cls-7" d="M475.34,502.47l-14.92-24.51v24.51h-8.8v-38.7h8.8l14.92,24.53v-24.53h8.77v38.7h-8.77Z"/>
      <path class="cls-7" d="M526.34,494.07c-1.43,2.87-3.43,5.08-6,6.62-2.56,1.54-5.5,2.31-8.83,2.31s-6.29-.77-8.87-2.31c-2.57-1.54-4.58-3.75-6.01-6.62-1.44-2.87-2.15-6.25-2.15-10.13v-1.62c0-3.88.71-7.26,2.14-10.14,1.43-2.88,3.42-5.09,5.98-6.63,2.56-1.54,5.51-2.31,8.85-2.31s6.27.77,8.85,2.31c2.58,1.54,4.59,3.75,6.02,6.63,1.44,2.88,2.15,6.26,2.15,10.14v1.62c0,3.88-.72,7.26-2.15,10.13ZM517.47,473.4c-1.41-2.05-3.41-3.07-6.01-3.07s-4.64,1.02-6.02,3.06c-1.38,2.04-2.07,5-2.07,8.88v1.67c0,3.86.7,6.83,2.11,8.89,1.41,2.06,3.42,3.1,6.04,3.1s4.57-1.04,5.97-3.11c1.4-2.07,2.1-5.03,2.1-8.88v-1.67c0-3.86-.7-6.82-2.11-8.86Z"/>
      <path class="cls-7" d="M564.53,495.53v6.94h-25.69v-38.7h8.8v31.76h16.89Z"/>
      <path class="cls-7" d="M602.64,494.07c-1.43,2.87-3.43,5.08-6,6.62-2.56,1.54-5.5,2.31-8.83,2.31s-6.29-.77-8.87-2.31c-2.57-1.54-4.58-3.75-6.01-6.62-1.44-2.87-2.15-6.25-2.15-10.13v-1.62c0-3.88.71-7.26,2.14-10.14,1.43-2.88,3.42-5.09,5.98-6.63,2.56-1.54,5.51-2.31,8.85-2.31s6.27.77,8.85,2.31c2.58,1.54,4.59,3.75,6.02,6.63,1.44,2.88,2.15,6.26,2.15,10.14v1.62c0,3.88-.72,7.26-2.15,10.13ZM593.78,473.4c-1.41-2.05-3.41-3.07-6.01-3.07s-4.64,1.02-6.02,3.06c-1.38,2.04-2.07,5-2.07,8.88v1.67c0,3.86.7,6.83,2.11,8.89,1.41,2.06,3.42,3.1,6.04,3.1s4.57-1.04,5.97-3.11c1.4-2.07,2.1-5.03,2.1-8.88v-1.67c0-3.86-.7-6.82-2.11-8.86Z"/>
      <path class="cls-7" d="M643.69,500.14c-1.34.81-3.05,1.48-5.12,2.03-2.07.55-4.43.82-7.08.82-3.47,0-6.49-.74-9.08-2.21-2.59-1.47-4.59-3.61-6.01-6.43-1.42-2.82-2.12-6.19-2.12-10.13v-2.21c0-3.93.69-7.31,2.08-10.14,1.39-2.83,3.34-4.98,5.85-6.46,2.51-1.48,5.41-2.22,8.72-2.22,5.02,0,8.81,1.16,11.37,3.48,2.56,2.32,4.07,5.52,4.52,9.6h-8.47c-.31-2.02-1.01-3.55-2.13-4.58-1.11-1.04-2.78-1.56-5.02-1.56-2.56,0-4.54,1-5.93,3-1.39,2-2.08,4.94-2.08,8.83v2.26c0,7.88,2.95,11.83,8.85,11.83,2.72,0,4.74-.58,6.04-1.73v-6.19h-7.01v-6.25h15.78v15.76c-.76.85-1.81,1.68-3.15,2.49Z"/>
      <path class="cls-7" d="M679.61,463.77h9.53l-12.83,24.75v13.95h-8.91v-13.95l-12.83-24.75h9.56l7.74,16.98,7.74-16.98Z"/>
    </g>
  </g>
</svg>